<mxfile host="app.diagrams.net" agent="Mozilla/5.0 (Windows NT 10.0; Win64; x64) AppleWebKit/537.36 (KHTML, like Gecko) Chrome/129.0.0.0 Safari/537.36" version="24.7.16">
  <diagram name="Página-1" id="fRqKBnReKZPvyhbqk0g7">
    <mxGraphModel dx="2021" dy="750" grid="1" gridSize="10" guides="1" tooltips="1" connect="1" arrows="1" fold="1" page="1" pageScale="1" pageWidth="827" pageHeight="1169" math="0" shadow="0">
      <root>
        <mxCell id="0" />
        <mxCell id="1" parent="0" />
        <mxCell id="w24g3oQtqLChynbJlNou-1" value="EQUIPA" style="rounded=0;whiteSpace=wrap;html=1;" vertex="1" parent="1">
          <mxGeometry x="210" y="220" width="80" height="80" as="geometry" />
        </mxCell>
        <mxCell id="w24g3oQtqLChynbJlNou-2" value="JOGADOR" style="rounded=0;whiteSpace=wrap;html=1;" vertex="1" parent="1">
          <mxGeometry x="530" y="220" width="80" height="80" as="geometry" />
        </mxCell>
        <mxCell id="w24g3oQtqLChynbJlNou-3" value="JOGO" style="rounded=0;whiteSpace=wrap;html=1;" vertex="1" parent="1">
          <mxGeometry x="210" y="520" width="80" height="80" as="geometry" />
        </mxCell>
        <mxCell id="w24g3oQtqLChynbJlNou-4" value="Data&lt;span style=&quot;color: rgba(0, 0, 0, 0); font-family: monospace; font-size: 0px; text-align: start; text-wrap: nowrap;&quot;&gt;%3CmxGraphModel%3E%3Croot%3E%3CmxCell%20id%3D%220%22%2F%3E%3CmxCell%20id%3D%221%22%20parent%3D%220%22%2F%3E%3CmxCell%20id%3D%222%22%20value%3D%22%22%20style%3D%22rhombus%3BwhiteSpace%3Dwrap%3Bhtml%3D1%3B%22%20vertex%3D%221%22%20parent%3D%221%22%3E%3CmxGeometry%20x%3D%22480%22%20y%3D%22280%22%20width%3D%2280%22%20height%3D%2280%22%20as%3D%22geometry%22%2F%3E%3C%2FmxCell%3E%3C%2Froot%3E%3C%2FmxGraphModel%3E&lt;/span&gt;" style="ellipse;whiteSpace=wrap;html=1;align=center;" vertex="1" parent="1">
          <mxGeometry x="100" y="620" width="80" height="40" as="geometry" />
        </mxCell>
        <mxCell id="w24g3oQtqLChynbJlNou-5" value="Resultado?" style="ellipse;whiteSpace=wrap;html=1;align=center;" vertex="1" parent="1">
          <mxGeometry x="390" y="545" width="80" height="40" as="geometry" />
        </mxCell>
        <mxCell id="w24g3oQtqLChynbJlNou-6" value="" style="endArrow=none;html=1;rounded=0;" edge="1" parent="1" source="w24g3oQtqLChynbJlNou-3" target="w24g3oQtqLChynbJlNou-4">
          <mxGeometry relative="1" as="geometry">
            <mxPoint x="310" y="670" as="sourcePoint" />
            <mxPoint x="470" y="670" as="targetPoint" />
          </mxGeometry>
        </mxCell>
        <mxCell id="w24g3oQtqLChynbJlNou-7" value="" style="endArrow=none;html=1;rounded=0;" edge="1" parent="1" source="w24g3oQtqLChynbJlNou-3" target="w24g3oQtqLChynbJlNou-5">
          <mxGeometry relative="1" as="geometry">
            <mxPoint x="432" y="600" as="sourcePoint" />
            <mxPoint x="576" y="703" as="targetPoint" />
          </mxGeometry>
        </mxCell>
        <mxCell id="w24g3oQtqLChynbJlNou-8" value="" style="endArrow=none;html=1;rounded=0;" edge="1" parent="1" source="w24g3oQtqLChynbJlNou-3" target="w24g3oQtqLChynbJlNou-11">
          <mxGeometry relative="1" as="geometry">
            <mxPoint x="330" y="583" as="sourcePoint" />
            <mxPoint x="140" y="640" as="targetPoint" />
          </mxGeometry>
        </mxCell>
        <mxCell id="w24g3oQtqLChynbJlNou-9" value="DatadeFundação" style="ellipse;whiteSpace=wrap;html=1;align=center;" vertex="1" parent="1">
          <mxGeometry x="-90" y="270" width="100" height="40" as="geometry" />
        </mxCell>
        <mxCell id="w24g3oQtqLChynbJlNou-10" value="Morada" style="ellipse;whiteSpace=wrap;html=1;align=center;" vertex="1" parent="1">
          <mxGeometry x="30" y="120" width="100" height="40" as="geometry" />
        </mxCell>
        <mxCell id="w24g3oQtqLChynbJlNou-11" value="Local" style="ellipse;whiteSpace=wrap;html=1;align=center;" vertex="1" parent="1">
          <mxGeometry x="50" y="565" width="80" height="40" as="geometry" />
        </mxCell>
        <mxCell id="w24g3oQtqLChynbJlNou-12" value="Visitante" style="ellipse;whiteSpace=wrap;html=1;align=center;" vertex="1" parent="1">
          <mxGeometry x="140" y="690" width="80" height="40" as="geometry" />
        </mxCell>
        <mxCell id="w24g3oQtqLChynbJlNou-13" value="" style="endArrow=none;html=1;rounded=0;" edge="1" parent="1" source="w24g3oQtqLChynbJlNou-3" target="w24g3oQtqLChynbJlNou-12">
          <mxGeometry relative="1" as="geometry">
            <mxPoint x="200" y="670" as="sourcePoint" />
            <mxPoint x="360" y="670" as="targetPoint" />
          </mxGeometry>
        </mxCell>
        <mxCell id="w24g3oQtqLChynbJlNou-14" value="Visitado" style="ellipse;whiteSpace=wrap;html=1;align=center;" vertex="1" parent="1">
          <mxGeometry x="350" y="640" width="80" height="40" as="geometry" />
        </mxCell>
        <mxCell id="w24g3oQtqLChynbJlNou-15" value="" style="endArrow=none;html=1;rounded=0;" edge="1" parent="1" source="w24g3oQtqLChynbJlNou-3" target="w24g3oQtqLChynbJlNou-14">
          <mxGeometry relative="1" as="geometry">
            <mxPoint x="200" y="670" as="sourcePoint" />
            <mxPoint x="360" y="670" as="targetPoint" />
          </mxGeometry>
        </mxCell>
        <mxCell id="w24g3oQtqLChynbJlNou-16" value="NumJogo" style="ellipse;whiteSpace=wrap;html=1;align=center;fontStyle=4;" vertex="1" parent="1">
          <mxGeometry x="270" y="690" width="80" height="40" as="geometry" />
        </mxCell>
        <mxCell id="w24g3oQtqLChynbJlNou-17" value="" style="endArrow=none;html=1;rounded=0;" edge="1" parent="1" source="w24g3oQtqLChynbJlNou-16" target="w24g3oQtqLChynbJlNou-3">
          <mxGeometry relative="1" as="geometry">
            <mxPoint x="200" y="670" as="sourcePoint" />
            <mxPoint x="360" y="670" as="targetPoint" />
          </mxGeometry>
        </mxCell>
        <mxCell id="w24g3oQtqLChynbJlNou-18" value="Nome" style="ellipse;whiteSpace=wrap;html=1;align=center;" vertex="1" parent="1">
          <mxGeometry x="220" y="100" width="100" height="40" as="geometry" />
        </mxCell>
        <mxCell id="w24g3oQtqLChynbJlNou-19" value="NumInterno" style="ellipse;whiteSpace=wrap;html=1;align=center;fontStyle=4;" vertex="1" parent="1">
          <mxGeometry x="-30" y="180" width="100" height="50" as="geometry" />
        </mxCell>
        <mxCell id="w24g3oQtqLChynbJlNou-20" value="" style="endArrow=none;html=1;rounded=0;" edge="1" parent="1" source="w24g3oQtqLChynbJlNou-1" target="w24g3oQtqLChynbJlNou-10">
          <mxGeometry relative="1" as="geometry">
            <mxPoint x="220" y="260" as="sourcePoint" />
            <mxPoint x="380" y="260" as="targetPoint" />
          </mxGeometry>
        </mxCell>
        <mxCell id="w24g3oQtqLChynbJlNou-21" value="" style="endArrow=none;html=1;rounded=0;" edge="1" parent="1" source="w24g3oQtqLChynbJlNou-1" target="w24g3oQtqLChynbJlNou-18">
          <mxGeometry relative="1" as="geometry">
            <mxPoint x="168" y="250" as="sourcePoint" />
            <mxPoint x="138" y="320" as="targetPoint" />
          </mxGeometry>
        </mxCell>
        <mxCell id="w24g3oQtqLChynbJlNou-22" value="" style="endArrow=none;html=1;rounded=0;" edge="1" parent="1" source="w24g3oQtqLChynbJlNou-10" target="w24g3oQtqLChynbJlNou-44">
          <mxGeometry relative="1" as="geometry">
            <mxPoint x="180" y="170" as="sourcePoint" />
            <mxPoint x="-110" y="200" as="targetPoint" />
          </mxGeometry>
        </mxCell>
        <mxCell id="w24g3oQtqLChynbJlNou-23" value="" style="endArrow=none;html=1;rounded=0;" edge="1" parent="1" source="w24g3oQtqLChynbJlNou-10" target="w24g3oQtqLChynbJlNou-40">
          <mxGeometry relative="1" as="geometry">
            <mxPoint x="188" y="270" as="sourcePoint" />
            <mxPoint x="-16.90328924211053" y="229.85959746873198" as="targetPoint" />
          </mxGeometry>
        </mxCell>
        <mxCell id="w24g3oQtqLChynbJlNou-24" value="" style="endArrow=none;html=1;rounded=0;" edge="1" parent="1" source="w24g3oQtqLChynbJlNou-10" target="w24g3oQtqLChynbJlNou-42">
          <mxGeometry relative="1" as="geometry">
            <mxPoint x="198" y="280" as="sourcePoint" />
            <mxPoint x="-12.264990188738466" y="273.35899411324294" as="targetPoint" />
          </mxGeometry>
        </mxCell>
        <mxCell id="w24g3oQtqLChynbJlNou-25" value="" style="endArrow=none;html=1;rounded=0;" edge="1" parent="1" source="w24g3oQtqLChynbJlNou-10" target="w24g3oQtqLChynbJlNou-41">
          <mxGeometry relative="1" as="geometry">
            <mxPoint x="208" y="290" as="sourcePoint" />
            <mxPoint x="14.073678397556478" y="330.80862036696817" as="targetPoint" />
          </mxGeometry>
        </mxCell>
        <mxCell id="w24g3oQtqLChynbJlNou-26" value="" style="endArrow=none;html=1;rounded=0;" edge="1" parent="1" source="w24g3oQtqLChynbJlNou-1" target="w24g3oQtqLChynbJlNou-9">
          <mxGeometry relative="1" as="geometry">
            <mxPoint x="130" y="215" as="sourcePoint" />
            <mxPoint x="-8" y="181" as="targetPoint" />
          </mxGeometry>
        </mxCell>
        <mxCell id="w24g3oQtqLChynbJlNou-27" value="" style="endArrow=none;html=1;rounded=0;" edge="1" parent="1" source="w24g3oQtqLChynbJlNou-1" target="w24g3oQtqLChynbJlNou-19">
          <mxGeometry relative="1" as="geometry">
            <mxPoint x="140" y="225" as="sourcePoint" />
            <mxPoint x="2" y="191" as="targetPoint" />
          </mxGeometry>
        </mxCell>
        <mxCell id="w24g3oQtqLChynbJlNou-28" value="NumJogador" style="ellipse;whiteSpace=wrap;html=1;align=center;fontStyle=4;" vertex="1" parent="1">
          <mxGeometry x="620" y="90" width="80" height="40" as="geometry" />
        </mxCell>
        <mxCell id="w24g3oQtqLChynbJlNou-29" value="Nome" style="ellipse;whiteSpace=wrap;html=1;align=center;" vertex="1" parent="1">
          <mxGeometry x="730" y="90" width="80" height="40" as="geometry" />
        </mxCell>
        <mxCell id="w24g3oQtqLChynbJlNou-30" value="DataDeNascimento" style="ellipse;whiteSpace=wrap;html=1;align=center;" vertex="1" parent="1">
          <mxGeometry x="500" y="50" width="120" height="40" as="geometry" />
        </mxCell>
        <mxCell id="w24g3oQtqLChynbJlNou-31" value="Genero" style="ellipse;whiteSpace=wrap;html=1;align=center;" vertex="1" parent="1">
          <mxGeometry x="830" y="120" width="80" height="40" as="geometry" />
        </mxCell>
        <mxCell id="w24g3oQtqLChynbJlNou-32" value="Posição" style="ellipse;whiteSpace=wrap;html=1;align=center;" vertex="1" parent="1">
          <mxGeometry x="870" y="170" width="80" height="40" as="geometry" />
        </mxCell>
        <mxCell id="w24g3oQtqLChynbJlNou-33" value="" style="endArrow=none;html=1;rounded=0;" edge="1" parent="1" source="w24g3oQtqLChynbJlNou-30" target="w24g3oQtqLChynbJlNou-2">
          <mxGeometry relative="1" as="geometry">
            <mxPoint x="376" y="190" as="sourcePoint" />
            <mxPoint x="536" y="190" as="targetPoint" />
          </mxGeometry>
        </mxCell>
        <mxCell id="w24g3oQtqLChynbJlNou-34" value="" style="endArrow=none;html=1;rounded=0;" edge="1" parent="1" source="w24g3oQtqLChynbJlNou-31" target="w24g3oQtqLChynbJlNou-2">
          <mxGeometry relative="1" as="geometry">
            <mxPoint x="662" y="96" as="sourcePoint" />
            <mxPoint x="756" y="129" as="targetPoint" />
          </mxGeometry>
        </mxCell>
        <mxCell id="w24g3oQtqLChynbJlNou-35" value="" style="endArrow=none;html=1;rounded=0;" edge="1" parent="1" source="w24g3oQtqLChynbJlNou-29" target="w24g3oQtqLChynbJlNou-2">
          <mxGeometry relative="1" as="geometry">
            <mxPoint x="672" y="106" as="sourcePoint" />
            <mxPoint x="776" y="139" as="targetPoint" />
          </mxGeometry>
        </mxCell>
        <mxCell id="w24g3oQtqLChynbJlNou-36" value="" style="endArrow=none;html=1;rounded=0;" edge="1" parent="1" source="w24g3oQtqLChynbJlNou-28" target="w24g3oQtqLChynbJlNou-2">
          <mxGeometry relative="1" as="geometry">
            <mxPoint x="682" y="116" as="sourcePoint" />
            <mxPoint x="776" y="149" as="targetPoint" />
          </mxGeometry>
        </mxCell>
        <mxCell id="w24g3oQtqLChynbJlNou-37" value="" style="endArrow=none;html=1;rounded=0;" edge="1" parent="1" source="w24g3oQtqLChynbJlNou-32" target="w24g3oQtqLChynbJlNou-2">
          <mxGeometry relative="1" as="geometry">
            <mxPoint x="924" y="121" as="sourcePoint" />
            <mxPoint x="876" y="134" as="targetPoint" />
          </mxGeometry>
        </mxCell>
        <mxCell id="w24g3oQtqLChynbJlNou-38" value="Idade" style="ellipse;whiteSpace=wrap;html=1;align=center;dashed=1;" vertex="1" parent="1">
          <mxGeometry x="820" y="230" width="80" height="40" as="geometry" />
        </mxCell>
        <mxCell id="w24g3oQtqLChynbJlNou-39" value="" style="endArrow=none;html=1;rounded=0;dashed=1;dashPattern=1 2;" edge="1" parent="1" source="w24g3oQtqLChynbJlNou-2" target="w24g3oQtqLChynbJlNou-38">
          <mxGeometry relative="1" as="geometry">
            <mxPoint x="846" y="180" as="sourcePoint" />
            <mxPoint x="596" y="250" as="targetPoint" />
          </mxGeometry>
        </mxCell>
        <mxCell id="w24g3oQtqLChynbJlNou-40" value="Rua" style="ellipse;whiteSpace=wrap;html=1;align=center;" vertex="1" parent="1">
          <mxGeometry x="-190" y="90" width="100" height="40" as="geometry" />
        </mxCell>
        <mxCell id="w24g3oQtqLChynbJlNou-41" value="NumPorta" style="ellipse;whiteSpace=wrap;html=1;align=center;" vertex="1" parent="1">
          <mxGeometry x="20" y="10" width="100" height="40" as="geometry" />
        </mxCell>
        <mxCell id="w24g3oQtqLChynbJlNou-42" value="CodPostal" style="ellipse;whiteSpace=wrap;html=1;align=center;" vertex="1" parent="1">
          <mxGeometry x="-120" y="20" width="100" height="40" as="geometry" />
        </mxCell>
        <mxCell id="w24g3oQtqLChynbJlNou-43" value="Localidade&lt;span style=&quot;color: rgba(0, 0, 0, 0); font-family: monospace; font-size: 0px; text-align: start; text-wrap: nowrap;&quot;&gt;%3CmxGraphModel%3E%3Croot%3E%3CmxCell%20id%3D%220%22%2F%3E%3CmxCell%20id%3D%221%22%20parent%3D%220%22%2F%3E%3CmxCell%20id%3D%222%22%20value%3D%22Rua%22%20style%3D%22ellipse%3BwhiteSpace%3Dwrap%3Bhtml%3D1%3Balign%3Dcenter%3B%22%20vertex%3D%221%22%20parent%3D%221%22%3E%3CmxGeometry%20x%3D%22-190%22%20y%3D%2290%22%20width%3D%22100%22%20height%3D%2240%22%20as%3D%22geometry%22%2F%3E%3C%2FmxCell%3E%3CmxCell%20id%3D%223%22%20value%3D%22NumPorta%22%20style%3D%22ellipse%3BwhiteSpace%3Dwrap%3Bhtml%3D1%3Balign%3Dcenter%3B%22%20vertex%3D%221%22%20parent%3D%221%22%3E%3CmxGeometry%20x%3D%22-210%22%20y%3D%22170%22%20width%3D%22100%22%20height%3D%2240%22%20as%3D%22geometry%22%2F%3E%3C%2FmxCell%3E%3C%2Froot%3E%3C%2FmxGraphModel%3E&lt;/span&gt;" style="ellipse;whiteSpace=wrap;html=1;align=center;" vertex="1" parent="1">
          <mxGeometry x="140" y="20" width="100" height="40" as="geometry" />
        </mxCell>
        <mxCell id="w24g3oQtqLChynbJlNou-44" value="Pais" style="ellipse;whiteSpace=wrap;html=1;align=center;" vertex="1" parent="1">
          <mxGeometry x="-170" y="160" width="100" height="40" as="geometry" />
        </mxCell>
        <mxCell id="w24g3oQtqLChynbJlNou-45" value="" style="endArrow=none;html=1;rounded=0;" edge="1" parent="1" source="w24g3oQtqLChynbJlNou-10" target="w24g3oQtqLChynbJlNou-43">
          <mxGeometry relative="1" as="geometry">
            <mxPoint x="34" y="101" as="sourcePoint" />
            <mxPoint x="66" y="59" as="targetPoint" />
          </mxGeometry>
        </mxCell>
        <mxCell id="w24g3oQtqLChynbJlNou-46" value="&lt;span id=&quot;docs-internal-guid-43029da2-7fff-7df8-2cbf-aa00a2b25a1e&quot;&gt;&lt;span style=&quot;font-size: 12pt; font-family: Calibri, sans-serif; background-color: transparent; font-variant-numeric: normal; font-variant-east-asian: normal; font-variant-alternates: normal; font-variant-position: normal; vertical-align: baseline; white-space-collapse: preserve;&quot;&gt;JOGOU&lt;/span&gt;&lt;/span&gt;" style="shape=rhombus;perimeter=rhombusPerimeter;whiteSpace=wrap;html=1;align=center;" vertex="1" parent="1">
          <mxGeometry x="210" y="370" width="80" height="80" as="geometry" />
        </mxCell>
        <mxCell id="w24g3oQtqLChynbJlNou-51" value="&lt;span id=&quot;docs-internal-guid-9887b025-7fff-62c5-72ed-c3d6865fafb4&quot;&gt;&lt;span style=&quot;font-size: 12pt; font-family: Calibri, sans-serif; background-color: transparent; font-variant-numeric: normal; font-variant-east-asian: normal; font-variant-alternates: normal; font-variant-position: normal; vertical-align: baseline; white-space-collapse: preserve;&quot;&gt;FILIADO_A&lt;/span&gt;&lt;/span&gt;" style="shape=rhombus;perimeter=rhombusPerimeter;whiteSpace=wrap;html=1;align=center;" vertex="1" parent="1">
          <mxGeometry x="363.5" y="220" width="100" height="80" as="geometry" />
        </mxCell>
        <mxCell id="w24g3oQtqLChynbJlNou-56" value="" style="endArrow=none;html=1;rounded=0;" edge="1" parent="1" source="w24g3oQtqLChynbJlNou-51" target="w24g3oQtqLChynbJlNou-2">
          <mxGeometry relative="1" as="geometry">
            <mxPoint x="330" y="390" as="sourcePoint" />
            <mxPoint x="490" y="390" as="targetPoint" />
          </mxGeometry>
        </mxCell>
        <mxCell id="w24g3oQtqLChynbJlNou-57" value="1" style="resizable=0;html=1;whiteSpace=wrap;align=left;verticalAlign=bottom;" connectable="0" vertex="1" parent="w24g3oQtqLChynbJlNou-56">
          <mxGeometry x="-1" relative="1" as="geometry" />
        </mxCell>
        <mxCell id="w24g3oQtqLChynbJlNou-58" value="1" style="resizable=0;html=1;whiteSpace=wrap;align=right;verticalAlign=bottom;" connectable="0" vertex="1" parent="w24g3oQtqLChynbJlNou-56">
          <mxGeometry x="1" relative="1" as="geometry" />
        </mxCell>
        <mxCell id="w24g3oQtqLChynbJlNou-59" value="" style="shape=link;html=1;rounded=0;" edge="1" parent="1" source="w24g3oQtqLChynbJlNou-1" target="w24g3oQtqLChynbJlNou-51">
          <mxGeometry relative="1" as="geometry">
            <mxPoint x="330" y="420" as="sourcePoint" />
            <mxPoint x="490" y="420" as="targetPoint" />
          </mxGeometry>
        </mxCell>
        <mxCell id="w24g3oQtqLChynbJlNou-60" value="1" style="resizable=0;html=1;whiteSpace=wrap;align=left;verticalAlign=bottom;" connectable="0" vertex="1" parent="w24g3oQtqLChynbJlNou-59">
          <mxGeometry x="-1" relative="1" as="geometry" />
        </mxCell>
        <mxCell id="w24g3oQtqLChynbJlNou-61" value="N" style="resizable=0;html=1;whiteSpace=wrap;align=right;verticalAlign=bottom;" connectable="0" vertex="1" parent="w24g3oQtqLChynbJlNou-59">
          <mxGeometry x="1" relative="1" as="geometry" />
        </mxCell>
        <mxCell id="w24g3oQtqLChynbJlNou-62" value="" style="endArrow=none;html=1;rounded=0;" edge="1" parent="1" source="w24g3oQtqLChynbJlNou-1" target="w24g3oQtqLChynbJlNou-46">
          <mxGeometry relative="1" as="geometry">
            <mxPoint x="440" y="350" as="sourcePoint" />
            <mxPoint x="510" y="350" as="targetPoint" />
          </mxGeometry>
        </mxCell>
        <mxCell id="w24g3oQtqLChynbJlNou-63" value="1" style="resizable=0;html=1;whiteSpace=wrap;align=left;verticalAlign=bottom;" connectable="0" vertex="1" parent="w24g3oQtqLChynbJlNou-62">
          <mxGeometry x="-1" relative="1" as="geometry">
            <mxPoint x="-10" y="20" as="offset" />
          </mxGeometry>
        </mxCell>
        <mxCell id="w24g3oQtqLChynbJlNou-64" value="N" style="resizable=0;html=1;whiteSpace=wrap;align=right;verticalAlign=bottom;" connectable="0" vertex="1" parent="w24g3oQtqLChynbJlNou-62">
          <mxGeometry x="1" relative="1" as="geometry" />
        </mxCell>
        <mxCell id="w24g3oQtqLChynbJlNou-65" value="" style="shape=link;html=1;rounded=0;" edge="1" parent="1" source="w24g3oQtqLChynbJlNou-3">
          <mxGeometry relative="1" as="geometry">
            <mxPoint x="300" y="270" as="sourcePoint" />
            <mxPoint x="250" y="450" as="targetPoint" />
          </mxGeometry>
        </mxCell>
        <mxCell id="w24g3oQtqLChynbJlNou-66" value="1" style="resizable=0;html=1;whiteSpace=wrap;align=left;verticalAlign=bottom;" connectable="0" vertex="1" parent="w24g3oQtqLChynbJlNou-65">
          <mxGeometry x="-1" relative="1" as="geometry" />
        </mxCell>
        <mxCell id="w24g3oQtqLChynbJlNou-67" value="2" style="resizable=0;html=1;whiteSpace=wrap;align=right;verticalAlign=bottom;" connectable="0" vertex="1" parent="w24g3oQtqLChynbJlNou-65">
          <mxGeometry x="1" relative="1" as="geometry">
            <mxPoint x="10" y="20" as="offset" />
          </mxGeometry>
        </mxCell>
      </root>
    </mxGraphModel>
  </diagram>
</mxfile>
